<?xml version="1.0" encoding="UTF-8" standalone="no"?>
<!DOCTYPE svg PUBLIC "-//W3C//DTD SVG 1.1//EN"
"http://www.w3.org/Graphics/SVG/1.1/DTD/svg11.dtd">
<svg viewBox="0 0 909 1288" version="1.1" xmlns="http://www.w3.org/2000/svg" xmlns:xlink="http://www.w3.org/1999/xlink">
<defs>
<style type="text/css"><![CDATA[
.g0{
fill: none;
stroke: #CAEBFD;
stroke-width: 0.733;
stroke-linecap: butt;
stroke-linejoin: miter;
}
]]></style>
</defs>
<path d="M0,56.9H909.4M0,68.1H909.4M0,79.5H909.4M0,90.7H909.4M0,102H909.4M0,113.2H909.4M0,124.6H909.4M0,135.8H909.4M0,147H909.4M0,158.3H909.4M0,169.5H909.4M0,180.9H909.4M0,192.1H909.4M0,203.4H909.4M0,214.6H909.4M0,226H909.4M0,237.2H909.4M0,248.4H909.4M0,259.8H909.4M0,270.9H909.4M0,282.3H909.4M0,293.5H909.4M0,304.9H909.4M0,316H909.4M0,327.2H909.4M0,338.6H909.4M0,349.8H909.4M0,361.1H909.4M0,372.3H909.4M0,383.7H909.4M0,394.9H909.4M0,406.1H909.4M0,417.4H909.4M0,428.6H909.4M0,440H909.4M0,451.2H909.4M0,462.5H909.4M0,473.7H909.4M0,485.1H909.4M0,496.3H909.4M0,507.5H909.4M0,518.8H909.4M0,530H909.4M0,541.4H909.4M0,552.6H909.4M0,563.9H909.4M0,575.1H909.4M0,586.3H909.4M0,597.7H909.4M0,608.8H909.4M0,620.2H909.4M0,631.4H909.4M0,642.8H909.4M0,653.9H909.4M0,665.3H909.4M0,676.5H909.4M0,687.7H909.4M0,699.1H909.4M0,710.2H909.4M0,721.6H909.4M0,732.8H909.4M0,744.2H909.4M0,755.4H909.4M0,766.5H909.4M0,777.9H909.4M0,789.1H909.4M0,800.5H909.4M0,811.6H909.4M0,823H909.4M0,834.2H909.4M0,845.4H909.4M0,856.7H909.4M0,867.9H909.4M0,879.3H909.4M0,890.5H909.4M0,901.8H909.4M0,913H909.4M0,924.4H909.4M0,935.6H909.4M0,946.8H909.4M0,958.1H909.4M0,969.3H909.4M0,980.7H909.4M0,991.9H909.4M0,1003.3H909.4M0,1014.5H909.4M0,1025.6H909.4M0,1037H909.4M0,1048.2H909.4M0,1059.6H909.4M0,1070.7H909.4M0,1082.1H909.4M0,1093.3H909.4M0,1104.7H909.4M0,1115.8H909.4M0,1127H909.4M0,1138.4H909.4M0,1149.6H909.4M0,1160.9H909.4M0,1172.1H909.4M0,1183.5H909.4M0,1194.7H909.4M0,1205.9H909.4M0,1217.3H909.4M0,1228.4H909.4M0,54.9V1231.4M11.1,54.9V1231.4M22.5,54.9V1231.4M33.7,54.9V1231.4M45,54.9V1231.4M56.2,54.9V1231.4M67.6,54.9V1231.4M78.8,54.9V1231.4M89.9,54.9V1231.4M101.3,54.9V1231.4M112.5,54.9V1231.4M123.9,54.9V1231.4M135,54.9V1231.4M146.4,54.9V1231.4M157.6,54.9V1231.4M169,54.9V1231.4M180.1,54.9V1231.4M191.3,54.9V1231.4M202.7,54.9V1231.4M213.9,54.9V1231.4M225.2,54.9V1231.4M236.4,54.9V1231.4M247.8,54.9V1231.4M259,54.9V1231.4M270.2,54.9V1231.4M281.5,54.9V1231.4M292.7,54.9V1231.4M304.1,54.9V1231.4M315.3,54.9V1231.4M326.7,54.9V1231.4M337.9,54.9V1231.4M349.2,54.9V1231.4M360.4,54.9V1231.4M371.6,54.9V1231.4M383,54.9V1231.4M394.1,54.9V1231.4M405.5,54.9V1231.4M416.7,54.9V1231.4M428.1,54.9V1231.4M439.2,54.9V1231.4M450.4,54.9V1231.4M461.8,54.9V1231.4M473,54.9V1231.4M484.3,54.9V1231.4M495.5,54.9V1231.4M506.9,54.9V1231.4M518.1,54.9V1231.4M529.3,54.9V1231.4M540.6,54.9V1231.4M551.8,54.9V1231.4M563.2,54.9V1231.4M574.4,54.9V1231.4M585.7,54.9V1231.4M596.9,54.9V1231.4M608.3,54.9V1231.4M619.5,54.9V1231.4M630.7,54.9V1231.4M642,54.9V1231.4M653.2,54.9V1231.4M664.6,54.9V1231.4M675.8,54.9V1231.4M687.1,54.9V1231.4M698.3,54.9V1231.4M709.5,54.9V1231.4M720.9,54.9V1231.4M732.1,54.9V1231.4M743.4,54.9V1231.4M754.6,54.9V1231.4M766,54.9V1231.4M777.1,54.9V1231.4M788.5,54.9V1231.4M799.7,54.9V1231.4M810.9,54.9V1231.4M822.3,54.9V1231.4M833.4,54.9V1231.4M844.8,54.9V1231.4M856,54.9V1231.4M867.3,54.9V1231.4M878.5,54.9V1231.4M889.7,54.9V1231.4M901.1,54.9V1231.4" class="g0"/>
<image preserveAspectRatio="none" x="93" y="-73" width="338" height="251" xlink:href="img/1.png"/>
<image preserveAspectRatio="none" x="93" y="191" width="384" height="260" xlink:href="img/2.png"/>
<image preserveAspectRatio="none" x="93" y="464" width="409" height="306" xlink:href="img/3.png"/>
<image preserveAspectRatio="none" x="93" y="783" width="407" height="96" xlink:href="img/4.png"/>
<image preserveAspectRatio="none" x="493" y="-76" width="369" height="234" xlink:href="img/5.png"/>
<image preserveAspectRatio="none" x="516" y="512" width="392" height="246" xlink:href="img/6.png"/>
<image preserveAspectRatio="none" x="95" y="825" width="474" height="214" xlink:href="img/7.png"/>
</svg>