<?xml version="1.0" encoding="UTF-8" standalone="no"?>
<!DOCTYPE svg PUBLIC "-//W3C//DTD SVG 1.1//EN"
"http://www.w3.org/Graphics/SVG/1.1/DTD/svg11.dtd">
<svg viewBox="0 0 909 1288" version="1.1" xmlns="http://www.w3.org/2000/svg" xmlns:xlink="http://www.w3.org/1999/xlink">
<defs>
<style type="text/css"><![CDATA[
.g0_2{
fill: none;
stroke: #CAEBFD;
stroke-width: 0.733;
stroke-linecap: butt;
stroke-linejoin: miter;
}
]]></style>
</defs>
<path d="M0,61H909.4M0,72.3H909.4M0,83.5H909.4M0,94.9H909.4M0,106.1H909.4M0,117.4H909.4M0,128.6H909.4M0,139.8H909.4M0,151.2H909.4M0,162.4H909.4M0,173.7H909.4M0,184.9H909.4M0,196.3H909.4M0,207.5H909.4M0,218.6H909.4M0,230H909.4M0,241.2H909.4M0,252.6H909.4M0,263.8H909.4M0,275.2H909.4M0,286.3H909.4M0,297.7H909.4M0,308.9H909.4M0,320.1H909.4M0,331.4H909.4M0,342.6H909.4M0,354H909.4M0,365.2H909.4M0,376.5H909.4M0,387.7H909.4M0,398.9H909.4M0,410.3H909.4M0,421.5H909.4M0,432.8H909.4M0,444H909.4M0,455.4H909.4M0,466.6H909.4M0,477.7H909.4M0,489.1H909.4M0,500.3H909.4M0,511.7H909.4M0,522.9H909.4M0,534.2H909.4M0,545.4H909.4M0,556.8H909.4M0,568H909.4M0,579.1H909.4M0,590.5H909.4M0,601.7H909.4M0,613.1H909.4M0,624.2H909.4M0,635.6H909.4M0,646.8H909.4M0,658H909.4M0,669.3H909.4M0,680.5H909.4M0,691.9H909.4M0,703.1H909.4M0,714.4H909.4M0,725.6H909.4M0,737H909.4M0,748.2H909.4M0,759.4H909.4M0,770.8H909.4M0,781.9H909.4M0,793.3H909.4M0,804.5H909.4M0,815.9H909.4M0,827H909.4M0,838.2H909.4M0,849.6H909.4M0,860.8H909.4M0,872.1H909.4M0,883.3H909.4M0,894.7H909.4M0,905.9H909.4M0,917.1H909.4M0,928.4H909.4M0,939.6H909.4M0,951H909.4M0,962.2H909.4M0,973.6H909.4M0,984.8H909.4M0,996.1H909.4M0,1007.3H909.4M0,1018.5H909.4M0,1029.9H909.4M0,1041H909.4M0,1052.4H909.4M0,1063.6H909.4M0,1075H909.4M0,1086.1H909.4M0,1097.3H909.4M0,1108.7H909.4M0,1119.9H909.4M0,1131.2H909.4M0,1142.4H909.4M0,1153.8H909.4M0,1165H909.4M0,1176.3H909.4M0,1187.5H909.4M0,1198.7H909.4M0,1210.1H909.4M0,1221.3H909.4M0,54.9V1231.4M11.1,54.9V1231.4M22.5,54.9V1231.4M33.7,54.9V1231.4M45,54.9V1231.4M56.2,54.9V1231.4M67.6,54.9V1231.4M78.8,54.9V1231.4M89.9,54.9V1231.4M101.3,54.9V1231.4M112.5,54.9V1231.4M123.9,54.9V1231.4M135,54.9V1231.4M146.4,54.9V1231.4M157.6,54.9V1231.4M169,54.9V1231.4M180.1,54.9V1231.4M191.3,54.9V1231.4M202.7,54.9V1231.4M213.9,54.9V1231.4M225.2,54.9V1231.4M236.4,54.9V1231.4M247.8,54.9V1231.4M259,54.9V1231.4M270.2,54.9V1231.4M281.5,54.9V1231.4M292.7,54.9V1231.4M304.1,54.9V1231.4M315.3,54.9V1231.4M326.7,54.9V1231.4M337.9,54.9V1231.4M349.2,54.9V1231.4M360.4,54.9V1231.4M371.6,54.9V1231.4M383,54.9V1231.4M394.1,54.9V1231.4M405.5,54.9V1231.4M416.7,54.9V1231.4M428.1,54.9V1231.4M439.2,54.9V1231.4M450.4,54.9V1231.4M461.8,54.9V1231.4M473,54.9V1231.4M484.3,54.9V1231.4M495.5,54.9V1231.4M506.9,54.9V1231.4M518.1,54.9V1231.4M529.3,54.9V1231.4M540.6,54.9V1231.4M551.8,54.9V1231.4M563.2,54.9V1231.4M574.4,54.9V1231.4M585.7,54.9V1231.4M596.9,54.9V1231.4M608.3,54.9V1231.4M619.5,54.9V1231.4M630.7,54.9V1231.4M642,54.9V1231.4M653.2,54.9V1231.4M664.6,54.9V1231.4M675.8,54.9V1231.4M687.1,54.9V1231.4M698.3,54.9V1231.4M709.5,54.9V1231.4M720.9,54.9V1231.4M732.1,54.9V1231.4M743.4,54.9V1231.4M754.6,54.9V1231.4M766,54.9V1231.4M777.1,54.9V1231.4M788.5,54.9V1231.4M799.7,54.9V1231.4M810.9,54.9V1231.4M822.3,54.9V1231.4M833.4,54.9V1231.4M844.8,54.9V1231.4M856,54.9V1231.4M867.3,54.9V1231.4M878.5,54.9V1231.4M889.7,54.9V1231.4M901.1,54.9V1231.4" class="g0_2"/>
<image preserveAspectRatio="none" x="68" y="55" width="378" height="283" xlink:href="img/1.png"/>
<image preserveAspectRatio="none" x="68" y="338" width="374" height="281" xlink:href="img/2.png"/>
<image preserveAspectRatio="none" x="68" y="631" width="372" height="279" xlink:href="img/3.png"/>
<image preserveAspectRatio="none" x="68" y="922" width="368" height="276" xlink:href="img/4.png"/>
<image preserveAspectRatio="none" x="467" y="336" width="184" height="122" xlink:href="img/5.png"/>
</svg>