<?xml version="1.0" encoding="UTF-8" standalone="no"?>
<!DOCTYPE svg PUBLIC "-//W3C//DTD SVG 1.1//EN"
"http://www.w3.org/Graphics/SVG/1.1/DTD/svg11.dtd">
<svg viewBox="0 0 909 1288" version="1.1" xmlns="http://www.w3.org/2000/svg" xmlns:xlink="http://www.w3.org/1999/xlink">
<defs>
<style type="text/css"><![CDATA[
.g0_1{
fill: none;
stroke: #CAEBFD;
stroke-width: 0.733;
stroke-linecap: butt;
stroke-linejoin: miter;
}
]]></style>
</defs>
<path d="M0,54.9H909.4M0,66.1H909.4M0,77.5H909.4M0,88.7H909.4M0,100H909.4M0,111.2H909.4M0,122.6H909.4M0,133.8H909.4M0,144.9H909.4M0,156.3H909.4M0,167.5H909.4M0,178.9H909.4M0,190H909.4M0,201.4H909.4M0,212.6H909.4M0,224H909.4M0,235.1H909.4M0,246.4H909.4M0,257.7H909.4M0,268.9H909.4M0,280.3H909.4M0,291.5H909.4M0,302.8H909.4M0,314H909.4M0,325.2H909.4M0,336.6H909.4M0,347.8H909.4M0,359.1H909.4M0,370.3H909.4M0,381.7H909.4M0,392.9H909.4M0,404.2H909.4M0,415.4H909.4M0,426.6H909.4M0,438H909.4M0,449.1H909.4M0,460.5H909.4M0,471.7H909.4M0,483.1H909.4M0,494.3H909.4M0,505.4H909.4M0,516.8H909.4M0,528H909.4M0,539.4H909.4M0,550.5H909.4M0,561.9H909.4M0,573.1H909.4M0,584.3H909.4M0,595.6H909.4M0,606.8H909.4M0,618.2H909.4M0,629.4H909.4M0,640.7H909.4M0,651.9H909.4M0,663.3H909.4M0,674.5H909.4M0,685.7H909.4M0,697H909.4M0,708.2H909.4M0,719.6H909.4M0,730.8H909.4M0,742.2H909.4M0,753.3H909.4M0,764.5H909.4M0,775.9H909.4M0,787.1H909.4M0,798.4H909.4M0,809.6H909.4M0,821H909.4M0,832.2H909.4M0,843.5H909.4M0,854.7H909.4M0,865.9H909.4M0,877.3H909.4M0,888.5H909.4M0,899.8H909.4M0,911H909.4M0,922.4H909.4M0,933.6H909.4M0,944.7H909.4M0,956.1H909.4M0,967.3H909.4M0,978.7H909.4M0,989.9H909.4M0,1001.3H909.4M0,1012.4H909.4M0,1023.8H909.4M0,1035H909.4M0,1046.2H909.4M0,1057.5H909.4M0,1068.7H909.4M0,1080.1H909.4M0,1091.3H909.4M0,1102.6H909.4M0,1113.8H909.4M0,1125H909.4M0,1136.4H909.4M0,1147.6H909.4M0,1158.9H909.4M0,1170.1H909.4M0,1181.5H909.4M0,1192.7H909.4M0,1203.8H909.4M0,1215.2H909.4M0,1226.4H909.4M0,54.9V1231.4M11.1,54.9V1231.4M22.5,54.9V1231.4M33.7,54.9V1231.4M45,54.9V1231.4M56.2,54.9V1231.4M67.6,54.9V1231.4M78.8,54.9V1231.4M89.9,54.9V1231.4M101.3,54.9V1231.4M112.5,54.9V1231.4M123.9,54.9V1231.4M135,54.9V1231.4M146.4,54.9V1231.4M157.6,54.9V1231.4M169,54.9V1231.4M180.1,54.9V1231.4M191.3,54.9V1231.4M202.7,54.9V1231.4M213.9,54.9V1231.4M225.2,54.9V1231.4M236.4,54.9V1231.4M247.8,54.9V1231.4M259,54.9V1231.4M270.2,54.9V1231.4M281.5,54.9V1231.4M292.7,54.9V1231.4M304.1,54.9V1231.4M315.3,54.9V1231.4M326.7,54.9V1231.4M337.9,54.9V1231.4M349.2,54.9V1231.4M360.4,54.9V1231.4M371.6,54.9V1231.4M383,54.9V1231.4M394.1,54.9V1231.4M405.5,54.9V1231.4M416.7,54.9V1231.4M428.1,54.9V1231.4M439.2,54.9V1231.4M450.4,54.9V1231.4M461.8,54.9V1231.4M473,54.9V1231.4M484.3,54.9V1231.4M495.5,54.9V1231.4M506.9,54.9V1231.4M518.1,54.9V1231.4M529.3,54.9V1231.4M540.6,54.9V1231.4M551.8,54.9V1231.4M563.2,54.9V1231.4M574.4,54.9V1231.4M585.7,54.9V1231.4M596.9,54.9V1231.4M608.3,54.9V1231.4M619.5,54.9V1231.4M630.7,54.9V1231.4M642,54.9V1231.4M653.2,54.9V1231.4M664.6,54.9V1231.4M675.8,54.9V1231.4M687.1,54.9V1231.4M698.3,54.9V1231.4M709.5,54.9V1231.4M720.9,54.9V1231.4M732.1,54.9V1231.4M743.4,54.9V1231.4M754.6,54.9V1231.4M766,54.9V1231.4M777.1,54.9V1231.4M788.5,54.9V1231.4M799.7,54.9V1231.4M810.9,54.9V1231.4M822.3,54.9V1231.4M833.4,54.9V1231.4M844.8,54.9V1231.4M856,54.9V1231.4M867.3,54.9V1231.4M878.5,54.9V1231.4M889.7,54.9V1231.4M901.1,54.9V1231.4" class="g0_1"/>
<image preserveAspectRatio="none" x="93" y="653" width="265" height="150" xlink:href="img/1.png"/>
<image preserveAspectRatio="none" x="93" y="816" width="292" height="104" xlink:href="img/2.png"/>
<image preserveAspectRatio="none" x="674" y="230" width="200" height="126" xlink:href="img/3.png"/>
<image preserveAspectRatio="none" x="378" y="601" width="254" height="142" xlink:href="img/4.png"/>
</svg>