<?xml version="1.0" encoding="UTF-8" standalone="no"?>
<!DOCTYPE svg PUBLIC "-//W3C//DTD SVG 1.1//EN"
"http://www.w3.org/Graphics/SVG/1.1/DTD/svg11.dtd">
<svg viewBox="0 0 909 1288" version="1.1" xmlns="http://www.w3.org/2000/svg" xmlns:xlink="http://www.w3.org/1999/xlink">
<defs>
<style type="text/css"><![CDATA[
.g0_3{
fill: none;
stroke: #CAEBFD;
stroke-width: 0.733;
stroke-linecap: butt;
stroke-linejoin: miter;
}
]]></style>
</defs>
<path d="M0,54.7H909.4M0,65.9H909.4M0,77.3H909.4M0,88.5H909.4M0,99.8H909.4M0,111H909.4M0,122.2H909.4M0,133.6H909.4M0,144.8H909.4M0,156.1H909.4M0,167.3H909.4M0,178.7H909.4M0,189.9H909.4M0,201.2H909.4M0,212.4H909.4M0,223.6H909.4M0,235H909.4M0,246.2H909.4M0,257.6H909.4M0,268.7H909.4M0,280.1H909.4M0,291.3H909.4M0,302.5H909.4M0,313.8H909.4M0,325H909.4M0,336.4H909.4M0,347.6H909.4M0,358.9H909.4M0,370.1H909.4M0,381.3H909.4M0,392.7H909.4M0,403.9H909.4M0,415.2H909.4M0,426.4H909.4M0,437.8H909.4M0,449H909.4M0,460.3H909.4M0,471.5H909.4M0,482.7H909.4M0,494.1H909.4M0,505.3H909.4M0,516.6H909.4M0,527.8H909.4M0,539.2H909.4M0,550.4H909.4M0,561.6H909.4M0,572.9H909.4M0,584.1H909.4M0,595.5H909.4M0,606.6H909.4M0,618H909.4M0,629.2H909.4M0,640.6H909.4M0,651.7H909.4M0,662.9H909.4M0,674.3H909.4M0,685.5H909.4M0,696.8H909.4M0,708H909.4M0,719.4H909.4M0,730.6H909.4M0,741.8H909.4M0,753.2H909.4M0,764.3H909.4M0,775.7H909.4M0,786.9H909.4M0,798.3H909.4M0,809.4H909.4M0,820.6H909.4M0,832H909.4M0,843.2H909.4M0,854.5H909.4M0,865.7H909.4M0,877.1H909.4M0,888.3H909.4M0,899.6H909.4M0,910.8H909.4M0,922H909.4M0,933.4H909.4M0,944.6H909.4M0,955.9H909.4M0,967.1H909.4M0,978.5H909.4M0,989.7H909.4M0,1000.9H909.4M0,1012.3H909.4M0,1023.4H909.4M0,1034.8H909.4M0,1046H909.4M0,1057.4H909.4M0,1068.5H909.4M0,1079.9H909.4M0,1091.1H909.4M0,1102.3H909.4M0,1113.6H909.4M0,1124.8H909.4M0,1136.2H909.4M0,1147.4H909.4M0,1158.7H909.4M0,1169.9H909.4M0,1181.1H909.4M0,1192.5H909.4M0,1203.7H909.4M0,1215.1H909.4M0,1226.2H909.4M0,54.9V1231.4M11.1,54.9V1231.4M22.5,54.9V1231.4M33.7,54.9V1231.4M45,54.9V1231.4M56.2,54.9V1231.4M67.6,54.9V1231.4M78.8,54.9V1231.4M89.9,54.9V1231.4M101.3,54.9V1231.4M112.5,54.9V1231.4M123.9,54.9V1231.4M135,54.9V1231.4M146.4,54.9V1231.4M157.6,54.9V1231.4M169,54.9V1231.4M180.1,54.9V1231.4M191.3,54.9V1231.4M202.7,54.9V1231.4M213.9,54.9V1231.4M225.2,54.9V1231.4M236.4,54.9V1231.4M247.8,54.9V1231.4M259,54.9V1231.4M270.2,54.9V1231.4M281.5,54.9V1231.4M292.7,54.9V1231.4M304.1,54.9V1231.4M315.3,54.9V1231.4M326.7,54.9V1231.4M337.9,54.9V1231.4M349.2,54.9V1231.4M360.4,54.9V1231.4M371.6,54.9V1231.4M383,54.9V1231.4M394.1,54.9V1231.4M405.5,54.9V1231.4M416.7,54.9V1231.4M428.1,54.9V1231.4M439.2,54.9V1231.4M450.4,54.9V1231.4M461.8,54.9V1231.4M473,54.9V1231.4M484.3,54.9V1231.4M495.5,54.9V1231.4M506.9,54.9V1231.4M518.1,54.9V1231.4M529.3,54.9V1231.4M540.6,54.9V1231.4M551.8,54.9V1231.4M563.2,54.9V1231.4M574.4,54.9V1231.4M585.7,54.9V1231.4M596.9,54.9V1231.4M608.3,54.9V1231.4M619.5,54.9V1231.4M630.7,54.9V1231.4M642,54.9V1231.4M653.2,54.9V1231.4M664.6,54.9V1231.4M675.8,54.9V1231.4M687.1,54.9V1231.4M698.3,54.9V1231.4M709.5,54.9V1231.4M720.9,54.9V1231.4M732.1,54.9V1231.4M743.4,54.9V1231.4M754.6,54.9V1231.4M766,54.9V1231.4M777.1,54.9V1231.4M788.5,54.9V1231.4M799.7,54.9V1231.4M810.9,54.9V1231.4M822.3,54.9V1231.4M833.4,54.9V1231.4M844.8,54.9V1231.4M856,54.9V1231.4M867.3,54.9V1231.4M878.5,54.9V1231.4M889.7,54.9V1231.4M901.1,54.9V1231.4" class="g0_3"/>
<image preserveAspectRatio="none" x="68" y="55" width="370" height="277" xlink:href="img/1.png"/>
<image preserveAspectRatio="none" x="93" y="391" width="250" height="187" xlink:href="img/2.png"/>
<image preserveAspectRatio="none" x="93" y="618" width="253" height="190" xlink:href="img/3.png"/>
<image preserveAspectRatio="none" x="93" y="826" width="253" height="189" xlink:href="img/4.png"/>
<image preserveAspectRatio="none" x="382" y="712" width="327" height="244" xlink:href="img/5.png"/>
</svg>