<?xml version="1.0" encoding="UTF-8" standalone="no"?>
<!DOCTYPE svg PUBLIC "-//W3C//DTD SVG 1.1//EN"
"http://www.w3.org/Graphics/SVG/1.1/DTD/svg11.dtd">
<svg viewBox="0 0 909 1288" version="1.1" xmlns="http://www.w3.org/2000/svg" xmlns:xlink="http://www.w3.org/1999/xlink">
<defs>
<style type="text/css"><![CDATA[
.g0_4{
fill: none;
stroke: #CAEBFD;
stroke-width: 0.733;
stroke-linecap: butt;
stroke-linejoin: miter;
}
]]></style>
</defs>
<path d="M0,63.2H909.4M0,74.4H909.4M0,85.5H909.4M0,96.9H909.4M0,108.1H909.4M0,119.5H909.4M0,130.6H909.4M0,142H909.4M0,153.2H909.4M0,164.4H909.4M0,175.7H909.4M0,186.9H909.4M0,198.3H909.4M0,209.5H909.4M0,220.8H909.4M0,232H909.4M0,243.4H909.4M0,254.6H909.4M0,265.8H909.4M0,277.2H909.4M0,288.4H909.4M0,299.7H909.4M0,310.9H909.4M0,322.3H909.4M0,333.5H909.4M0,344.6H909.4M0,356H909.4M0,367.2H909.4M0,378.6H909.4M0,389.7H909.4M0,401.1H909.4M0,412.3H909.4M0,423.5H909.4M0,434.8H909.4M0,446H909.4M0,457.4H909.4M0,468.6H909.4M0,479.9H909.4M0,491.1H909.4M0,502.5H909.4M0,513.7H909.4M0,524.9H909.4M0,536.3H909.4M0,547.4H909.4M0,558.8H909.4M0,570H909.4M0,581.3H909.4M0,592.5H909.4M0,603.7H909.4M0,615.1H909.4M0,626.3H909.4M0,637.6H909.4M0,648.8H909.4M0,660.2H909.4M0,671.4H909.4M0,682.7H909.4M0,693.9H909.4M0,705.1H909.4M0,716.5H909.4M0,727.7H909.4M0,739H909.4M0,750.2H909.4M0,761.6H909.4M0,772.8H909.4M0,784H909.4M0,795.3H909.4M0,806.5H909.4M0,817.9H909.4M0,829.1H909.4M0,840.4H909.4M0,851.6H909.4M0,863H909.4M0,874.2H909.4M0,885.3H909.4M0,896.7H909.4M0,907.9H909.4M0,919.3H909.4M0,930.4H909.4M0,941.8H909.4M0,953H909.4M0,964.2H909.4M0,975.6H909.4M0,986.8H909.4M0,998.1H909.4M0,1009.3H909.4M0,1020.7H909.4M0,1031.9H909.4M0,1043.1H909.4M0,1054.4H909.4M0,1065.6H909.4M0,1077H909.4M0,1088.2H909.4M0,1099.5H909.4M0,1110.7H909.4M0,1122.1H909.4M0,1133.3H909.4M0,1144.4H909.4M0,1155.8H909.4M0,1167H909.4M0,1178.4H909.4M0,1189.5H909.4M0,1200.9H909.4M0,1212.1H909.4M0,1223.3H909.4M0,54.9V1231.4M11.1,54.9V1231.4M22.5,54.9V1231.4M33.7,54.9V1231.4M45,54.9V1231.4M56.2,54.9V1231.4M67.6,54.9V1231.4M78.8,54.9V1231.4M89.9,54.9V1231.4M101.3,54.9V1231.4M112.5,54.9V1231.4M123.9,54.9V1231.4M135,54.9V1231.4M146.4,54.9V1231.4M157.6,54.9V1231.4M169,54.9V1231.4M180.1,54.9V1231.4M191.3,54.9V1231.4M202.7,54.9V1231.4M213.9,54.9V1231.4M225.2,54.9V1231.4M236.4,54.9V1231.4M247.8,54.9V1231.4M259,54.9V1231.4M270.2,54.9V1231.4M281.5,54.9V1231.4M292.7,54.9V1231.4M304.1,54.9V1231.4M315.3,54.9V1231.4M326.7,54.9V1231.4M337.9,54.9V1231.4M349.2,54.9V1231.4M360.4,54.9V1231.4M371.6,54.9V1231.4M383,54.9V1231.4M394.1,54.9V1231.4M405.5,54.9V1231.4M416.7,54.9V1231.4M428.1,54.9V1231.4M439.2,54.9V1231.4M450.4,54.9V1231.4M461.8,54.9V1231.4M473,54.9V1231.4M484.3,54.9V1231.4M495.5,54.9V1231.4M506.9,54.9V1231.4M518.1,54.9V1231.4M529.3,54.9V1231.4M540.6,54.9V1231.4M551.8,54.9V1231.4M563.2,54.9V1231.4M574.4,54.9V1231.4M585.7,54.9V1231.4M596.9,54.9V1231.4M608.3,54.9V1231.4M619.5,54.9V1231.4M630.7,54.9V1231.4M642,54.9V1231.4M653.2,54.9V1231.4M664.6,54.9V1231.4M675.8,54.9V1231.4M687.1,54.9V1231.4M698.3,54.9V1231.4M709.5,54.9V1231.4M720.9,54.9V1231.4M732.1,54.9V1231.4M743.4,54.9V1231.4M754.6,54.9V1231.4M766,54.9V1231.4M777.1,54.9V1231.4M788.5,54.9V1231.4M799.7,54.9V1231.4M810.9,54.9V1231.4M822.3,54.9V1231.4M833.4,54.9V1231.4M844.8,54.9V1231.4M856,54.9V1231.4M867.3,54.9V1231.4M878.5,54.9V1231.4M889.7,54.9V1231.4M901.1,54.9V1231.4" class="g0_4"/>
<image preserveAspectRatio="none" x="93" y="55" width="268" height="200" xlink:href="img/1.png"/>
<image preserveAspectRatio="none" x="93" y="278" width="262" height="196" xlink:href="img/2.png"/>
<image preserveAspectRatio="none" x="93" y="517" width="337" height="252" xlink:href="img/3.png"/>
<image preserveAspectRatio="none" x="93" y="781" width="338" height="253" xlink:href="img/4.png"/>
<image preserveAspectRatio="none" x="93" y="1047" width="338" height="253" xlink:href="img/5.png"/>
<image preserveAspectRatio="none" x="493" y="678" width="368" height="197" xlink:href="img/6.png"/>
<image preserveAspectRatio="none" x="493" y="887" width="368" height="145" xlink:href="img/7.png"/>
<image preserveAspectRatio="none" x="493" y="1044" width="369" height="235" xlink:href="img/8.png"/>
</svg>